<?xml version="1.0" encoding="iso-8859-1"?>
<!-- Generator: Adobe Illustrator 19.0.0, SVG Export Plug-In . SVG Version: 6.00 Build 0)  -->
<svg version="1.1" id="Capa_1" xmlns="http://www.w3.org/2000/svg" xmlns:xlink="http://www.w3.org/1999/xlink" x="0px" y="0px"
	 viewBox="0 0 512 512" style="enable-background:new 0 0 512 512;" xml:space="preserve">
<g>
	<g>
		<path d="M465.08,243.94c-1.86-1.86-4.44-2.92-7.07-2.92s-5.21,1.061-7.07,2.92c-1.86,1.87-2.93,4.44-2.93,7.07
			c0,2.64,1.07,5.21,2.93,7.08c1.86,1.86,4.44,2.93,7.07,2.93s5.21-1.069,7.07-2.93c1.86-1.87,2.93-4.44,2.93-7.08
			C468.01,248.38,466.94,245.81,465.08,243.94z"/>
	</g>
</g>
<g>
	<g>
		<path d="M458.01,222c5.523,0,10-4.478,10-10V30c0-16.542-13.458-30-30-30H151.977c-2.652,0-5.196,1.054-7.071,2.929l-97.987,97.99
			c-1.875,1.876-2.929,4.419-2.929,7.071V482c0,16.542,13.458,30,30,30h364.02c16.542,0,30-13.458,30-30V296c0-5.522-4.477-10-10-10
			s-10,4.478-10,10v186c0,5.514-4.486,10-10,10H73.99c-5.514,0-10-4.486-10-10V117.99h67.987c16.542,0,30-13.458,30-30V20H438.01
			c5.514,0,10,4.486,10,10v182C448.01,217.522,452.487,222,458.01,222z M141.977,87.99c0,5.514-4.486,10-10,10H78.131l63.846-63.848
			V87.99z"/>
	</g>
</g>
<g>
	<g>
		<path d="M168.28,154.211c-3.903-3.907-10.264-3.878-14.17,0.023l-0.234,0.234c-3.882,3.928-3.845,10.259,0.083,14.142
			c1.949,1.927,4.49,2.888,7.029,2.888c2.578,0,5.156-0.991,7.112-2.971l0.141-0.141c0.002-0.002,0.066-0.065,0.068-0.067
			C172.213,164.415,172.183,158.116,168.28,154.211z"/>
	</g>
</g>
<g>
	<g>
		<path d="M357.813,154.177c-46.404-46.404-118.272-55.604-174.769-22.371c-4.761,2.8-6.35,8.929-3.55,13.689
			c2.801,4.76,8.93,6.349,13.69,3.549c48.642-28.611,110.526-20.688,150.487,19.275c48.348,48.347,48.348,127.015,0,175.361
			C320.25,367.102,289.111,380,255.99,380c-33.121,0-64.261-12.898-87.681-36.319c-38.992-38.992-47.514-99.833-20.723-147.955
			c2.686-4.826,0.952-10.915-3.874-13.602c-4.828-2.688-10.916-0.952-13.602,3.873c-14.927,26.813-20.918,58.42-16.869,89.001
			c4.183,31.594,18.334,60.234,40.924,82.825C181.364,385.021,217.526,400,255.99,400c38.464,0,74.625-14.979,101.823-42.177
			S399.99,294.464,399.99,256S385.011,181.375,357.813,154.177z"/>
	</g>
</g>
<g>
	<g>
		<path d="M275.568,313.502l-8.485-26.892c5.028-0.526,8.948-4.777,8.948-9.944c0-5.522-4.477-10-10-10h-5.24l-26.552-84.155
			c-1.313-4.161-5.173-6.991-9.537-6.991s-8.224,2.83-9.537,6.991l-26.552,84.155h-5.241c-5.523,0-10,4.478-10,10
			c0,5.167,3.92,9.418,8.948,9.944l-8.485,26.892c-1.659,5.267,1.263,10.884,6.53,12.545c5.27,1.666,10.884-1.26,12.545-6.527
			l10.366-32.854h42.853l10.365,32.854c1.346,4.266,5.286,6.994,9.534,6.994c0.997,0,2.011-0.15,3.012-0.467
			C274.307,324.386,277.229,318.769,275.568,313.502z M209.586,266.666l15.117-47.911l15.116,47.911H209.586z"/>
	</g>
</g>
<g>
	<g>
		<path d="M326.65,196.522h-11.002V185.52c0-5.523-4.477-10-10-10s-10,4.478-10,10v11.002h-11.001c-5.523,0-10,4.478-10,10
			c0,5.522,4.477,10,10,10h11.001v11.002c0,5.522,4.477,10,10,10s10-4.478,10-10v-11.002h11.002c5.523,0,10-4.478,10-10
			C336.65,201,332.173,196.522,326.65,196.522z"/>
	</g>
</g>
<g>
</g>
<g>
</g>
<g>
</g>
<g>
</g>
<g>
</g>
<g>
</g>
<g>
</g>
<g>
</g>
<g>
</g>
<g>
</g>
<g>
</g>
<g>
</g>
<g>
</g>
<g>
</g>
<g>
</g>
</svg>
